<?xml version="1.0" encoding="utf-8"?>
<!DOCTYPE svg PUBLIC "-//W3C//DTD SVG 1.1//EN" "http://www.w3.org/Graphics/SVG/1.1/DTD/svg11.dtd">
<svg version="1.1" xmlns="http://www.w3.org/2000/svg" xmlns:xlink="http://www.w3.org/1999/xlink" x="0px" y="0px" viewBox="0 0 512 512" height="1.3em" style="enable-background:new 0 0 512 512;" xml:space="preserve"><circle style="fill:#FCCB5B;" cx="256" cy="256" r="256" /><g><path style="fill:#F9DDAA;" d="M340.147,14.169h-56.209c-7.357,0-13.322,5.964-13.322,13.322c0,7.359,5.964,13.324,13.322,13.324h3.702c7.358,0,13.323,5.964,13.323,13.322S294.998,67.46,287.64,67.46h-36.316c-7.357,0-13.322,5.964-13.322,13.322c0,7.357,5.964,13.322,13.322,13.322h112.272c7.359,0,13.324-5.965,13.324-13.323c0-7.358,5.965-13.323,13.325-13.321h31.648c2.082,0,4.044-0.492,5.798-1.345C402.543,43.364,372.853,25.548,340.147,14.169z" />	<path style="fill:#F9DDAA;" d="M176.271,204.817c7.356,0,13.322-5.966,13.322-13.322c0-3.679-1.494-7.012-3.908-9.415c-2.404-2.414-5.737-3.908-9.415-3.908H94.11c-7.356,0-13.322-5.966-13.322-13.322c0-3.679,1.494-7.012,3.897-9.415c2.414-2.414,5.747-3.908,9.425-3.908h37.418c7.356,0,13.322-5.966,13.322-13.322c0-3.679-1.494-7.012-3.908-9.415-2.404-2.414-5.737-3.908-9.415-3.908h-11.306c-7.356,0-13.322-5.966-13.322-13.322c0-3.689,1.494-7.011,3.908-9.425c2.404-2.413,5.737-3.897,9.415-3.897h40.5c7.356,0,13.322-5.966,13.322-13.322c0-3.689-1.494-7.011-3.908-9.425c-2.404-2.414-5.737-3.908-9.415-3.908H78.46C41.8,106.885,15.635,153.008,5.122,204.818L176.271,204.817z" /><path style="fill:#F9DDAA;" d="M479.487,131.086h-39.575h-11.306c-3.678,0-7.011,1.494-9.415,3.908c-2.414,2.403-3.908,5.736-3.908,9.415c0,7.356,5.966,13.322,13.322,13.322h28.418c3.678,0,7.011,1.494,9.425,3.908c2.403,2.403,3.897,5.736,3.897,9.415c0,7.356-5.966,13.322-13.322,13.322h-73.16c-3.678,0-7.011,1.494-9.415,3.908c-2.414,2.403-3.908,5.736-3.908,9.415c0,7.356,5.966,13.322,13.322,13.322l124.195,0.001C502.995,182.457,493.183,155.537,479.487,131.086z" /></g><path style="fill:#EDEFEF;" d="M324.175,71.262h-62.213c-1.629,0-2.962-1.333-2.962-2.962V28.974c0-1.629,1.333-2.962,2.962-2.962h62.213c1.629,0,2.962,1.333,2.962,2.962V68.3C327.137,69.929,325.804,71.262,324.175,71.262z" /><path style="fill:#E0E2E2;" d="M277.5,68.3V28.974c0-1.629,1.333-2.962,2.962-2.962h-18.5c-1.629,0-2.962,1.333-2.962,2.962V68.3c0,1.629,1.333,2.962,2.962,2.962h18.5C278.833,71.262,277.5,69.929,277.5,68.3z" /><g>	<path style="fill:#F95E5A;" d="M259,28.974v8.288h68.137v-8.288c0-1.629-1.333-2.962-2.962-2.962h-62.213C260.333,26.012,259,27.345,259,28.974z" />	<rect x="259" y="48.51" style="fill:#F95E5A;" width="68.14" height="11.25" /></g><rect x="259" y="48.51" style="fill:#EA5050;" width="18.5" height="11.25" /><path style="fill:#57ADDD;" d="M261.962,26.012c-1.629,0-2.962,1.333-2.962,2.962v19.538h27.425c1.629,0,2.962-1.333,2.962-2.962	V26.012H261.962z" /><path style="fill:#4794C9;" d="M259,48.512h18.5V28.974c0-1.629,1.333-2.962,2.962-2.962h-18.5c-0.306,0-0.595,0.06-0.873,0.147c-0.278,0.087-0.544,0.201-0.781,0.361c-0.158,0.107-0.304,0.228-0.438,0.363c-0.537,0.537-0.87,1.277-0.87,2.092L259,48.512L259,48.512z" /><rect x="103.75" y="259.56" style="fill:#77BBE8;" width="304.48" height="181.99" /><rect x="103.75" y="400.02" style="fill:#569FDB;" width="304.48" height="41.533" /><rect x="103.75" y="259.56" style="fill:#57ADDD;" width="91.06" height="181.99" /><rect x="103.75" y="400.02" style="fill:#4794C9;" width="91.06" height="41.533" /><rect x="103.75" y="314.8" style="fill:#569FDB;" width="304.48" height="41.533" /><rect x="103.75" y="314.8" style="fill:#4794C9;" width="91.06" height="41.533" /><path style="fill:#CBD0D1;" d="M421.742,451.088c53.9-45.838,88.565-113.604,90.187-189.515h-90.187V451.088z" /><path style="fill:#B9B9BA;" d="M90.258,451.088V261.573H0.07C1.692,337.484,36.357,405.25,90.258,451.088z" /><path style="fill:#CACACC;" d="M256,20.255c-4.143,0-7.5,3.357-7.5,7.5v15.674v79.993v15.674c0,4.143,3.357,7.5,7.5,7.5s7.5-3.357,7.5-7.5v-15.674V43.428V27.755C263.5,23.612,260.143,20.255,256,20.255z" /><g><rect x="103.76" y="342.56" style="fill:#CBD0D1;" width="304.48" height="27" /><rect x="103.76" y="428.05" style="fill:#CBD0D1;" width="304.48" height="27" /></g><g><rect x="103.76" y="342.56" style="fill:#B9B9BA;" width="91.05" height="27" />	<rect x="103.76" y="428.05" style="fill:#B9B9BA;" width="91.05" height="27" /></g><path style="fill:#CBD0D1;" d="M90.258,451.088c1.576,1.34,3.167,2.661,4.776,3.963h22.224v-197.99h-27V451.088z" /><path style="fill:#B9B9BA;" d="M90.258,271.6v2.124v25.117c8.963-1.245,17.968-2.376,27-3.415V257.06h-27V271.6z" /><path style="fill:#E0E2E2;" d="M394.742,455.051h22.224c1.608-1.302,3.201-2.623,4.776-3.963V257.061h-27V455.051z" /><path style="fill:#CBD0D1;" d="M394.742,295.509c9.033,1.044,18.037,2.181,27,3.431v-25.117v-2.145V257.06h-27V295.509z" /><rect x="333.85" y="257.06" style="fill:#E0E2E2;" width="27" height="197.99" /><path style="fill:#CBD0D1;" d="M333.846,290.054c9.019,0.577,18.021,1.246,27,2.023v-35.016h-27V290.054z" /><rect x="272.95" y="257.06" style="fill:#E0E2E2;" width="27" height="197.99" /><path style="fill:#CBD0D1;" d="M272.948,287.683c9.006,0.127,18.007,0.349,27,0.673V257.06h-27V287.683z" /><path style="fill:#B9B9BA;" d="M503.604,321.22v-64.16h-27v128.866C488.401,365.939,497.564,344.214,503.604,321.22z" /><path style="fill:#9D9D9E;" d="M8.396,321.22c6.04,22.994,15.203,44.719,27,64.706V257.061h-27V321.22z" /><rect x="212.05" y="257.06" style="fill:#E0E2E2;" width="27" height="197.99" /><g><path style="fill:#CBD0D1;" d="M212.052,288.331c8.993-0.319,17.994-0.536,27-0.658V257.06h-27V288.331z" /><rect x="151.15" y="257.06" style="fill:#CBD0D1;" width="27" height="197.99" /></g><g><path style="fill:#B9B9BA;" d="M151.154,292.016c8.979-0.772,17.982-1.435,27-2.007v-32.948h-27V292.016z" /><path style="fill:#B9B9BA;" d="M90.258,272.725c108.663-15.087,222.844-15.053,331.484,0.098v-27.261c-108.722-14.806-222.738-14.823-331.484-0.078C90.258,245.484,90.258,272.725,90.258,272.725z" /></g><g><path style="fill:#9D9D9E;" d="M194.811,235.923c-35.156,1.708-70.119,4.892-104.553,9.56v27.241c34.415-4.778,69.383-8.035,104.553-9.779V235.923z" /><path style="fill:#9D9D9E;" d="M421.742,272.823h89.693C511.796,267.26,512,261.654,512,256c0-3.242-0.081-6.464-0.2-9.677h-90.058V272.823z" /></g><path style="fill:#B9B9BA;" d="M509.346,219.13h-87.604v27.194H511.8C511.458,237.126,510.634,228.054,509.346,219.13z" /><path style="fill:#888889;" d="M0,256c0,5.654,0.203,11.26,0.564,16.823h89.693v-26.5H0.2C0.081,249.536,0,252.758,0,256z" /><g><path style="fill:#B9B9BA;" d="M0.2,246.323h90.058V219.13H2.653C1.366,228.054,0.542,237.126,0.2,246.323z" /><path style="fill:#B9B9BA;" d="M239.052,159.739c11.297-0.161,22.6-0.158,33.897,0.01v-22.844c0-3.158-2.542-5.739-5.7-5.769c-7.289-0.07-14.58-0.074-21.87-0.011c-3.505,0.031-6.327,2.894-6.327,6.399V159.739z" /></g><path style="fill:#9D9D9E;" d="M256,137.525c0-3.505,2.822-6.369,6.327-6.399c0.522-0.005,1.044-0.003,1.565-0.006	c-6.171-0.042-12.342-0.047-18.513,0.006c-3.505,0.031-6.327,2.894-6.327,6.399v22.214c5.648-0.08,11.298-0.12,16.948-0.118V137.525	z" /><path style="fill:#CBD0D1;" d="M181.042,159.483c-1.622,0.097-2.887,1.445-2.887,3.069v21.607v2.542v24.5c51.713-3.277,103.982-3.262,155.691,0.045v-24.5v-2.554v-18.821c0-3.188-2.484-5.835-5.668-6.02C279.276,156.521,229.931,156.566,181.042,159.483z" /><path style="fill:#B9B9BA;" d="M205.154,186.921v-2.77v-23.545c0-0.919,0.377-1.752,0.982-2.36c-8.375,0.331-16.742,0.739-25.095,1.237c-1.622,0.097-2.887,1.445-2.887,3.069v21.606v2.542v24.5	c8.985-0.569,17.987-1.033,27-1.403V186.921z" /><path style="fill:#E0E2E2;" d="M90.258,246.225c108.663-15.087,222.844-15.053,331.484,0.098v-27.261	c-108.722-14.806-222.738-14.823-331.484-0.078C90.258,218.984,90.258,246.225,90.258,246.225z" /><path style="fill:#CBD0D1;" d="M194.811,209.423c-35.156,1.708-70.119,4.892-104.553,9.56v27.241c34.415-4.778,69.383-8.035,104.553-9.779V209.423z" /><path style="fill:#B9B9BA;" d="M95.035,455.052C139.011,490.658,195.009,512,256,512s116.989-21.342,160.965-56.948H95.035z" /><path style="fill:#9D9D9E;" d="M194.811,455.052H95.035c28.769,23.293,62.685,40.479,99.776,49.581V455.052z" /><path style="fill:#77C680;" d="M455.157,416.834c-0.744-0.027-1.489-0.049-2.239-0.049c-23.094,0-43.204,12.724-53.739,31.536c-0.658,1.176-2.082,1.675-3.338,1.189c-5.24-2.029-10.933-3.149-16.89-3.149c-25.886,0-46.871,20.985-46.871,46.872c0,2.414,0.202,4.778,0.557,7.092C381.358,485.058,423.8,455.614,455.157,416.834z" /><path style="fill:#68BA6E;" d="M133.048,446.361c-5.957,0-11.649,1.12-16.89,3.149c-1.257,0.486-2.68-0.013-3.338-1.189c-10.535-18.812-30.646-31.536-53.739-31.536c-0.75,0-1.495,0.022-2.239,0.049c31.357,38.78,73.799,68.224,122.52,83.491 c0.355-2.314,0.558-4.678,0.558-7.092C179.92,467.346,158.935,446.361,133.048,446.361z" /><g></g><g></g><g></g><g></g><g></g><g></g><g></g><g></g><g></g><g></g><g></g><g></g><g></g><g></g><g></g></svg>
